<svg width="751" height="767" viewBox="0 0 751 767" fill="none" xmlns="http://www.w3.org/2000/svg">
<path d="M135.348 81.5574C144.762 72.8355 160.345 61.9384 171.275 55.0653C231.134 17.4329 306.611 -2.62016 377.287 0.27537C473.569 4.2209 564.109 45.8987 629.485 116.782C640.299 128.509 649.253 139.237 658.228 152.305C665.989 162.434 672.01 172.733 678.522 183.702C719.661 253.006 733.539 333.226 723.438 412.828C714.018 487.077 681.815 552.649 632.322 608.562C629.887 606.907 623.682 599.234 621.579 596.626C604.151 575.036 588.67 552.798 573.582 529.549C569.29 524.142 564.48 516.611 560.439 510.819C554.418 502.189 548.594 494.181 542.269 485.799C546.678 481.316 556.581 463.055 559.394 457.02C585.787 400.44 586.676 339.801 565.796 281.531L563.658 276.229C542.255 223.849 497.502 177.932 445.182 156.741C395.114 136.459 340.818 135.349 289.987 153.321C284.34 155.319 278.403 158.051 272.82 160.334C268.705 158.481 249.035 166.158 244.295 167.637C89.3943 215.94 -4.62147 387.431 53.8605 542.072C55.6009 546.671 62.0661 560.234 61.5116 564.159C53.1797 553.377 46.6715 541.878 40.3386 529.835C7.1403 466.715 -5.13429 397.712 1.92241 327.064C11.7712 228.455 59.0057 144.039 135.348 81.5574Z" fill="#F8F6F1"/>
<path d="M135.348 81.5574C138.885 81.6792 141.434 79.7602 144.505 78.1466C158.774 70.6473 173.379 63.1501 188.852 58.4465C287.054 26.8261 396.272 48.4914 473.418 117.532C513.43 153.342 542.785 200.008 558.971 251.248C560.591 256.38 566.647 277.182 565.796 281.531L563.658 276.229C542.255 223.849 497.502 177.932 445.182 156.741C395.114 136.46 340.818 135.349 289.987 153.321C284.34 155.319 278.403 158.051 272.82 160.334C268.705 158.481 249.035 166.158 244.295 167.637C89.3943 215.94 -4.62147 387.431 53.8605 542.072C55.6005 546.671 62.0661 560.234 61.5116 564.159C53.1797 553.377 46.6715 541.878 40.3386 529.835C7.1403 466.715 -5.13429 397.712 1.92241 327.064C11.7712 228.455 59.0057 144.039 135.348 81.5574Z" fill="#F8F6F1"/>
<path d="M658.228 152.305C665.993 162.434 672.011 172.733 678.522 183.702C719.661 253.006 733.539 333.226 723.438 412.828C714.018 487.076 681.815 552.649 632.322 608.562C629.887 606.907 623.682 599.234 621.579 596.626C604.151 575.036 588.671 552.798 573.582 529.549C580.475 523.648 587.305 517.909 593.887 511.733C656.566 452.901 693.501 373.387 691.98 286.899C691.557 262.881 689.534 240.621 683.28 217.147C679.084 202.782 673.687 188.933 667.68 175.256C665.312 169.864 657.921 157.133 658.228 152.305Z" fill="#F8F6F1"/>
<path d="M61.5119 564.159C62.0664 560.234 55.6012 546.674 53.8612 542.072C-4.62114 387.431 89.3946 215.94 244.295 167.636C249.035 166.158 268.705 158.481 272.82 160.334C260.174 166.782 248.816 172.694 237.152 180.942C200.612 206.785 169.422 247.405 155.605 290.164C145.878 320.262 142.253 351.462 145.383 382.98C146.343 392.622 148.038 401.326 149.739 410.816C164.668 471.254 198.176 517.779 251.583 551.118C296.096 578.905 356.989 590.58 408.593 578.502C418.736 576.501 429.367 573.092 438.893 569.128C446.862 577.475 455.326 585.416 462.536 594.466C479.763 616.094 494.576 639.734 509.915 662.718C511.789 665.52 525.438 684.946 525.865 686.668C519.07 690.014 512.089 693.466 505.147 696.508C438.388 724.186 370.073 733.369 298.486 720.282C219.289 705.805 147.946 664.916 93.5544 605.714C82.5776 593.763 70.6344 577.433 61.5119 564.159Z" fill="#F8F6F1"/>
<path d="M503.848 692.054C492.484 694.048 482.725 696.014 471.039 697.045C418.991 701.552 367.098 691.592 319.666 669.618C224.76 625.652 158.121 528.247 149.834 424.133C149.569 420.798 148.419 413.661 149.739 410.816C164.668 471.254 198.176 517.779 251.583 551.118C296.096 578.905 356.989 590.58 408.589 578.502C418.736 576.501 429.367 573.092 438.893 569.128C446.862 577.475 455.326 585.416 462.536 594.466C479.764 616.094 494.573 639.734 509.915 662.718C511.786 665.52 525.434 684.946 525.865 686.668C519.067 690.014 512.089 693.466 505.147 696.508L503.848 692.054Z" fill="#F8F6F1"/>
<path d="M438.893 569.128C446.862 577.472 455.326 585.417 462.536 594.466C479.763 616.094 494.573 639.734 509.915 662.718C511.789 665.52 525.438 684.946 525.865 686.668C519.071 690.014 512.089 693.466 505.147 696.508L503.848 692.054C498.134 679.606 492.152 670.126 484.969 658.504C470.576 634.881 453.879 613.486 432.724 595.55C425.065 589.055 415.832 584.545 408.593 578.503C418.736 576.501 429.367 573.092 438.893 569.128Z" fill="#F8F6F1"/>
<path d="M327.099 530.298C332.343 494.809 343.412 462.431 371.852 438.275C390.427 422.499 415.729 414.431 440.061 416.637C484.309 420.657 515.562 453.632 542.266 485.799C548.591 494.181 554.418 502.189 560.439 510.819C564.48 516.611 569.29 524.142 573.582 529.549C588.67 552.798 604.147 575.036 621.575 596.626C623.682 599.234 629.887 606.907 632.322 608.562C660.261 637.698 696.879 664.239 739.532 659.64C741.66 659.411 748.719 657.455 750.208 658.288C745.33 691.405 726.078 726.787 699.113 747.109C679.087 762.205 654.483 769.006 629.527 765.268C589.126 759.219 556.832 728.456 533.548 696.762C531.423 693.868 528.148 688.984 525.865 686.668C525.434 684.946 511.786 665.52 509.915 662.718C494.573 639.734 479.763 616.094 462.536 594.466C455.326 585.417 446.862 577.472 438.893 569.128C434.393 563.361 421.486 552.794 415.362 548.361C388.828 529.158 366.067 523.048 333.978 528.152C332.809 528.639 328.496 529.867 327.099 530.298Z" fill="#F8F6F1"/>
<path d="M333.978 528.152C335.979 524.259 343.144 522.41 347.238 521.051C384.882 508.571 425.305 519.477 459.473 537.388C536.513 577.772 589.916 657.155 681.092 670.225C697.419 672.565 711.258 672.568 727.235 667.966C736.634 665.259 742.309 661.204 750.208 658.288C745.331 691.405 726.078 726.787 699.116 747.11C679.091 762.205 654.487 769.006 629.531 765.268C589.126 759.215 556.832 728.457 533.548 696.763C531.424 693.868 528.148 688.984 525.865 686.668C525.438 684.946 511.789 665.52 509.919 662.718C494.577 639.734 479.764 616.094 462.536 594.466C455.326 585.417 446.862 577.472 438.893 569.128C434.393 563.361 421.489 552.794 415.362 548.361C388.828 529.154 366.067 523.048 333.978 528.152Z" fill="#F8F6F1"/>
</svg>
