<svg width="1080" height="1104" viewBox="0 0 1080 1104" fill="none" xmlns="http://www.w3.org/2000/svg">
<path d="M194.847 117.41C208.402 104.854 230.83 89.1667 246.569 79.2721C332.742 25.0962 441.398 -3.77222 543.144 0.396475C681.75 6.07607 812.092 66.0758 906.206 168.12C921.776 185.002 934.667 200.446 947.587 219.26C958.763 233.84 967.428 248.666 976.804 264.46C1036.03 364.227 1056 479.711 1041.46 594.309C1027.9 701.196 981.544 795.596 910.294 876.087C906.788 873.704 897.855 862.659 894.824 858.906C869.735 827.826 847.451 795.807 825.73 762.339C819.552 754.557 812.626 743.714 806.809 735.377C798.142 722.951 789.755 711.424 780.65 699.357C786.998 692.903 801.255 666.616 805.307 657.928C843.299 576.475 844.583 489.178 814.523 405.291L811.445 397.661C780.633 322.255 716.204 256.152 640.887 225.644C568.809 196.447 490.643 194.849 417.465 220.723C409.337 223.595 400.792 227.53 392.754 230.817C386.827 228.15 358.51 239.2 351.687 241.328C128.692 310.87 -6.65319 557.747 77.538 780.367C80.043 786.991 89.3505 806.516 88.5521 812.165C76.5577 796.643 67.1884 780.087 58.0715 762.753C10.2791 671.883 -7.39146 572.545 2.76759 470.841C16.946 328.884 84.9448 207.36 194.847 117.41Z" fill="#F09E32"/>
<path d="M194.847 117.41C199.939 117.585 203.61 114.823 208.03 112.5C228.573 101.704 249.598 90.9111 271.872 84.1396C413.244 38.6187 570.476 69.8084 681.532 169.2C739.137 220.752 781.395 287.93 804.694 361.7C807.027 369.086 815.748 399.033 814.523 405.291L811.445 397.661C780.633 322.255 716.204 256.152 640.887 225.644C568.809 196.447 490.643 194.849 417.465 220.723C409.337 223.595 400.792 227.53 392.754 230.817C386.827 228.15 358.51 239.2 351.687 241.328C128.692 310.87 -6.65319 557.747 77.538 780.367C80.043 786.991 89.3505 806.516 88.5521 812.165C76.5577 796.644 67.1884 780.087 58.0715 762.753C10.2791 671.883 -7.39146 572.545 2.76759 470.841C16.946 328.884 84.9448 207.36 194.847 117.41Z" fill="#EA6732"/>
<path d="M947.587 219.26C958.763 233.84 967.428 248.666 976.804 264.46C1036.03 364.227 1056 479.711 1041.46 594.309C1027.9 701.196 981.545 795.596 910.294 876.087C906.788 873.704 897.855 862.659 894.824 858.906C869.735 827.826 847.451 795.807 825.73 762.339C835.656 753.847 845.485 745.584 854.959 736.692C945.196 651.999 998.364 537.53 996.176 413.019C995.569 378.447 992.657 346.398 983.651 312.608C977.611 291.924 969.842 271.987 961.194 252.299C957.786 244.537 947.143 226.21 947.587 219.26Z" fill="#F8BC44"/>
<path d="M88.5521 812.164C89.3505 806.516 80.043 786.991 77.538 780.367C-6.65321 557.747 128.692 310.87 351.687 241.328C358.51 239.2 386.827 228.15 392.754 230.817C374.549 240.1 358.194 248.613 341.404 260.487C288.801 297.689 243.898 356.164 224.009 417.719C210.007 461.051 204.785 505.964 209.295 551.338C210.675 565.222 213.117 577.747 215.565 591.411C237.058 678.419 285.296 745.397 362.18 793.392C426.26 833.394 513.922 850.201 588.209 832.816C602.813 829.935 618.118 825.024 631.831 819.319C643.305 831.332 655.49 842.767 665.869 855.797C690.668 886.93 711.99 920.964 734.077 954.051C736.771 958.084 756.419 986.048 757.037 988.529C747.253 993.348 737.204 998.314 727.213 1002.69C631.106 1042.54 532.755 1055.76 429.699 1036.92C315.689 1016.08 212.981 957.214 134.681 871.986C118.878 854.785 101.685 831.276 88.5521 812.164Z" fill="#E73434"/>
<path d="M725.341 996.282C708.981 999.151 694.933 1001.98 678.107 1003.47C603.18 1009.96 528.475 995.615 460.195 963.984C323.563 900.689 227.63 760.466 215.704 610.58C215.323 605.781 213.663 595.509 215.565 591.411C237.058 678.419 285.296 745.397 362.18 793.392C426.26 833.394 513.922 850.201 588.209 832.816C602.813 829.935 618.117 825.024 631.831 819.319C643.305 831.332 655.49 842.767 665.869 855.797C690.668 886.93 711.99 920.964 734.077 954.051C736.771 958.084 756.419 986.048 757.037 988.529C747.253 993.348 737.203 998.314 727.213 1002.69L725.341 996.282Z" fill="#C7243D"/>
<path d="M631.831 819.319C643.305 831.332 655.49 842.767 665.869 855.797C690.668 886.93 711.991 920.964 734.077 954.051C736.771 958.084 756.419 986.048 757.038 988.529C747.253 993.348 737.204 998.313 727.213 1002.69L725.341 996.282C717.114 978.365 708.503 964.715 698.164 947.984C677.441 913.976 653.406 883.176 622.951 857.352C611.926 848.003 598.63 841.51 588.209 832.816C602.813 829.935 618.118 825.024 631.831 819.319Z" fill="#AB1E35"/>
<path d="M470.891 763.417C478.442 712.329 494.379 665.717 535.317 630.943C562.058 608.228 598.488 596.613 633.511 599.793C697.214 605.577 742.203 653.05 780.65 699.357C789.755 711.424 798.142 722.951 806.809 735.377C812.626 743.714 819.552 754.556 825.73 762.339C847.451 795.807 869.735 827.826 894.824 858.906C897.855 862.659 906.788 873.704 910.294 876.087C950.514 918.034 1003.23 956.242 1064.64 949.621C1067.7 949.29 1077.86 946.476 1080 947.673C1072.98 995.348 1045.26 1046.28 1006.45 1075.54C977.618 1097.27 942.199 1107.06 906.271 1101.68C848.107 1092.97 801.617 1048.69 768.098 1003.06C765.038 998.896 760.322 991.865 757.037 988.529C756.419 986.048 736.771 958.084 734.077 954.051C711.99 920.964 690.668 886.93 665.869 855.797C655.49 842.767 643.305 831.332 631.83 819.319C625.354 811.018 606.774 795.804 597.956 789.42C559.759 761.774 526.992 752.98 480.796 760.327C479.115 761.027 472.903 762.796 470.891 763.417Z" fill="#EA6732"/>
<path d="M480.796 760.327C483.675 754.723 493.991 752.06 499.885 750.106C554.076 732.139 612.268 747.838 661.46 773.625C772.365 831.761 849.243 946.044 980.501 964.856C1004 968.225 1023.93 968.231 1046.93 961.606C1060.46 957.708 1068.63 951.871 1080 947.673C1072.98 995.349 1045.26 1046.28 1006.45 1075.54C977.618 1097.27 942.199 1107.06 906.271 1101.68C848.107 1092.97 801.617 1048.69 768.098 1003.06C765.038 998.896 760.322 991.865 757.037 988.529C756.419 986.048 736.771 958.084 734.077 954.051C711.99 920.964 690.668 886.93 665.869 855.797C655.49 842.767 643.305 831.332 631.831 819.319C625.354 811.018 606.774 795.804 597.956 789.42C559.759 761.774 526.992 752.98 480.796 760.327Z" fill="#ED803D"/>
</svg>
